<?xml version="1.0" encoding="utf-8"?>
<!-- Generator: Adobe Illustrator 16.0.0, SVG Export Plug-In . SVG Version: 6.00 Build 0)  -->
<!DOCTYPE svg PUBLIC "-//W3C//DTD SVG 1.1//EN" "http://www.w3.org/Graphics/SVG/1.1/DTD/svg11.dtd">
<svg version="1.1" xmlns="http://www.w3.org/2000/svg" xmlns:xlink="http://www.w3.org/1999/xlink" x="0px" y="0px" width="508.9px"
	 height="508.9px" viewBox="0 0 508.9 508.9" enable-background="new 0 0 508.9 508.9" xml:space="preserve">
<g id="Inner_Blocks">
	<path d="M256.6,97.5c27.1,0.3,52.6,7.6,74.8,20.1l33.1-57.3C331.9,41.8,295,31.9,256.6,31.5V97.5z"/>
	<path d="M177.8,117.6c22.2-12.5,47.7-19.7,74.8-20.1v-66c-38.4,0.3-75.3,10.3-107.9,28.8L177.8,117.6z"/>
	<path d="M389.6,174.4l57.3-33.1c-9.5-16-21-30.9-34.5-44.4s-28.4-25-44.4-34.5l-33.1,57.3C357.4,133,376.2,151.9,389.6,174.4z"/>
	<path d="M389.6,334.9c-13.4,22.5-32.3,41.3-54.8,54.8l33.1,57.3c16-9.5,30.9-21,44.4-34.5s25-28.4,34.5-44.4L389.6,334.9z"/>
	<path d="M119.6,334.9l-57.3,33.1c9.5,16,21,30.9,34.5,44.4s28.4,25,44.4,34.5l33.1-57.3C151.9,376.2,133,357.4,119.6,334.9z"/>
	<path d="M119.6,174.4c13.4-22.5,32.3-41.3,54.8-54.8l-33.1-57.3c-16,9.5-30.9,21-44.4,34.5s-25,28.4-34.5,44.4L119.6,174.4z"/>
	<path d="M117.6,331.4c-12.5-22.2-19.7-47.7-20.1-74.8h-66c0.3,38.4,10.3,75.3,28.8,107.9L117.6,331.4z"/>
	<path d="M391.6,177.8c12.5,22.2,19.7,47.7,20.1,74.8h66c-0.3-38.4-10.3-75.3-28.8-107.9L391.6,177.8z"/>
	<path d="M411.7,256.6c-0.3,27.1-7.6,52.6-20.1,74.8l57.3,33.1c18.5-32.6,28.5-69.5,28.8-107.9H411.7z"/>
	<path d="M97.5,252.6c0.3-27.1,7.6-52.6,20.1-74.8l-57.3-33.1c-18.5,32.6-28.5,69.5-28.8,107.9H97.5z"/>
	<path d="M331.4,391.6c-22.2,12.5-47.7,19.7-74.8,20.1v66c38.4-0.3,75.3-10.3,107.9-28.8L331.4,391.6z"/>
	<path d="M252.6,411.7c-27.1-0.3-52.6-7.6-74.8-20.1l-33.1,57.3c32.6,18.5,69.5,28.5,107.9,28.8V411.7z"/>
</g>
<g id="Outer_Blocks">
	<path d="M175.6,478.4l-5.9,16.2c5.4,1.9,10.9,3.6,16.4,5.2l4.4-16.6C185.5,481.8,180.5,480.2,175.6,478.4z"/>
	<path d="M388.5,58.6l9.9-14.1c-4.7-3.3-9.6-6.4-14.5-9.3l-8.6,14.9C379.8,52.8,384.2,55.7,388.5,58.6z"/>
	<path d="M195.4,484.5L191,501c5.5,1.4,11.1,2.6,16.8,3.7l3-16.9C205.6,486.9,200.5,485.8,195.4,484.5z"/>
	<path d="M371,47.7l8.6-14.9c-5-2.8-10.1-5.5-15.2-7.9l-7.3,15.6C361.8,42.6,366.4,45.1,371,47.7z"/>
	<path d="M420.5,84.9l12.1-12.1c-4.1-4-8.3-7.9-12.7-11.6l-11.1,13.2C412.9,77.7,416.8,81.2,420.5,84.9z"/>
	<path d="M156.4,470.7l-7.3,15.6c5.2,2.4,10.5,4.6,15.9,6.6l5.9-16.2C166,474.9,161.2,472.9,156.4,470.7z"/>
	<path d="M405.1,71.1l11.1-13.2c-4.4-3.7-9-7.1-13.6-10.5l-9.9,14.1C396.9,64.6,401.1,67.7,405.1,71.1z"/>
	<path d="M352.5,38.2l7.3-15.6c-5.2-2.4-10.5-4.6-15.9-6.6L338,32.2C342.9,34.1,347.8,36.1,352.5,38.2z"/>
	<path d="M293.2,20.2l3-16.8c-5.6-0.9-11.3-1.7-17-2.2l-1.5,17C282.9,18.7,288.1,19.4,293.2,20.2z"/>
	<path d="M236.3,491.2l-1.5,17c5.7,0.4,11.4,0.7,17.2,0.7v-17.1C246.7,491.8,241.5,491.6,236.3,491.2z"/>
	<path d="M272.7,17.7l1.5-17C268.5,0.3,262.7,0.1,257,0v17.1C262.2,17.1,267.5,17.3,272.7,17.7z"/>
	<path d="M252,17.1V0c-5.8,0.1-11.5,0.3-17.2,0.7l1.5,17C241.5,17.3,246.7,17.1,252,17.1z"/>
	<path d="M257,491.9v17.1c5.8-0.1,11.5-0.3,17.2-0.7l-1.5-17C267.5,491.6,262.2,491.8,257,491.9z"/>
	<path d="M434.6,100L447.8,89c-3.7-4.3-7.6-8.5-11.6-12.7L424,88.5C427.7,92.2,431.2,96,434.6,100z"/>
	<path d="M215.7,488.7l-3,16.8c5.6,0.9,11.3,1.7,17,2.2l1.5-17C226,490.3,220.9,489.6,215.7,488.7z"/>
	<path d="M313.5,24.5l4.4-16.6c-5.5-1.4-11.1-2.6-16.8-3.7l-3,16.9C303.3,22,308.5,23.2,313.5,24.5z"/>
	<path d="M333.3,30.5l5.9-16.2c-5.4-1.9-10.9-3.6-16.4-5.2l-4.4,16.6C323.4,27.2,328.4,28.8,333.3,30.5z"/>
	<path d="M476.7,170.9l16.2-5.9c-2-5.4-4.2-10.7-6.6-15.9l-15.6,7.3C472.9,161.2,474.9,166,476.7,170.9z"/>
	<path d="M74.3,408.9L61.1,420c3.7,4.3,7.6,8.5,11.6,12.7l12.1-12.1C81.2,416.8,77.7,412.9,74.3,408.9z"/>
	<path d="M61.5,392.7l-14.1,9.9c3.3,4.6,6.8,9.2,10.5,13.6l13.2-11.1C67.7,401.1,64.6,396.9,61.5,392.7z"/>
	<path d="M491.9,252h17.1c-0.1-5.8-0.3-11.5-0.7-17.2l-17,1.5C491.6,241.5,491.8,246.7,491.9,252z"/>
	<path d="M490.8,231.3l17-1.5c-0.5-5.7-1.3-11.4-2.2-17l-16.8,3C489.6,220.8,490.3,226,490.8,231.3z"/>
	<path d="M32.2,338l-16.2,5.9c2,5.4,4.2,10.7,6.6,15.9l15.6-7.3C36.1,347.8,34.1,342.9,32.2,338z"/>
	<path d="M21.1,298.2l-16.9,3c1,5.6,2.3,11.3,3.7,16.8l16.6-4.4C23.2,308.5,22,303.3,21.1,298.2z"/>
	<path d="M50.2,375.3l-14.9,8.6c2.9,4.9,6,9.7,9.3,14.5l14.1-9.9C55.7,384.2,52.8,379.8,50.2,375.3z"/>
	<path d="M88.5,424l-12.1,12.1c4.1,4,8.3,7.9,12.7,11.6l11.1-13.2C96,431.2,92.2,427.7,88.5,424z"/>
	<path d="M138,461.3l-8.6,14.9c5,2.8,10.1,5.5,15.2,7.9l7.3-15.6C147.1,466.3,142.5,463.9,138,461.3z"/>
	<path d="M25.8,318.3l-16.6,4.4c1.5,5.5,3.3,11,5.2,16.4l16.2-5.9C28.8,328.4,27.2,323.4,25.8,318.3z"/>
	<path d="M120.4,450.3l-9.9,14.1c4.7,3.3,9.6,6.4,14.5,9.3l8.6-14.9C129.1,456.1,124.7,453.3,120.4,450.3z"/>
	<path d="M458.8,133.6l14.9-8.6c-2.9-4.9-6-9.7-9.3-14.5l-14.1,9.9C453.3,124.7,456.1,129.1,458.8,133.6z"/>
	<path d="M468.6,151.9l15.6-7.3c-2.5-5.2-5.1-10.3-7.9-15.2l-14.9,8.6C463.9,142.5,466.3,147.1,468.6,151.9z"/>
	<path d="M447.4,116.3l14.1-9.9c-3.3-4.6-6.8-9.2-10.5-13.6l-13.2,11.1C441.2,107.9,444.4,112,447.4,116.3z"/>
	<path d="M483.2,190.6l16.6-4.4c-1.5-5.5-3.3-11-5.2-16.4l-16.2,5.9C480.2,180.5,481.8,185.5,483.2,190.6z"/>
	<path d="M231.3,18.2l-1.5-17c-5.7,0.5-11.4,1.3-17,2.2l3,16.8C220.9,19.4,226,18.7,231.3,18.2z"/>
	<path d="M487.9,210.8l16.9-3c-1-5.7-2.3-11.3-3.7-16.8l-16.6,4.4C485.8,200.5,486.9,205.6,487.9,210.8z"/>
	<path d="M103.9,437.9L92.8,451c4.4,3.7,9,7.2,13.6,10.5l9.9-14.1C112,444.4,107.9,441.2,103.9,437.9z"/>
	<path d="M437.9,405.1l13.2,11.1c3.7-4.4,7.2-9,10.5-13.6l-14.1-9.9C444.4,396.9,441.2,401.1,437.9,405.1z"/>
	<path d="M375.3,458.8l8.6,14.9c4.9-2.9,9.7-6,14.5-9.3l-9.9-14.1C384.2,453.3,379.8,456.1,375.3,458.8z"/>
	<path d="M392.7,447.4l9.9,14.1c4.6-3.3,9.2-6.8,13.6-10.5l-11.1-13.2C401.1,441.2,396.9,444.4,392.7,447.4z"/>
	<path d="M30.5,175.6l-16.2-5.9c-1.9,5.4-3.6,10.9-5.2,16.4l16.6,4.4C27.2,185.5,28.8,180.5,30.5,175.6z"/>
	<path d="M84.9,88.5L72.8,76.3c-4,4.1-7.9,8.3-11.6,12.7L74.3,100C77.7,96,81.2,92.2,84.9,88.5z"/>
	<path d="M47.7,138l-14.9-8.6c-2.8,5-5.5,10.1-7.9,15.2l15.6,7.3C42.6,147.1,45.1,142.5,47.7,138z"/>
	<path d="M38.2,156.4l-15.6-7.3c-2.4,5.2-4.6,10.5-6.6,15.9l16.2,5.9C34.1,166,36.1,161.2,38.2,156.4z"/>
	<path d="M71.1,103.8L57.9,92.8c-3.7,4.4-7.2,9-10.5,13.6l14.1,9.9C64.6,112,67.7,107.9,71.1,103.8z"/>
	<path d="M478.4,333.3l16.2,5.9c1.9-5.4,3.6-10.9,5.2-16.4l-16.6-4.4C481.8,323.4,480.2,328.4,478.4,333.3z"/>
	<path d="M484.5,313.5l16.6,4.4c1.4-5.5,2.6-11.1,3.7-16.8l-16.9-3C486.9,303.3,485.8,308.5,484.5,313.5z"/>
	<path d="M58.6,120.4l-14.1-9.9c-3.3,4.7-6.4,9.6-9.3,14.5l14.9,8.6C52.8,129.1,55.7,124.7,58.6,120.4z"/>
	<path d="M470.7,352.5l15.6,7.3c2.4-5.2,4.6-10.5,6.6-15.9l-16.2-5.9C474.9,342.9,472.9,347.8,470.7,352.5z"/>
	<path d="M17.1,257L0,257c0.1,5.8,0.3,11.5,0.7,17.2l17-1.5C17.3,267.5,17.1,262.2,17.1,257z"/>
	<path d="M424,420.5l12.1,12.1c4-4.1,7.9-8.3,11.6-12.7l-13.2-11.1C431.2,412.9,427.7,416.8,424,420.5z"/>
	<path d="M40.4,357.1l-15.6,7.3c2.5,5.2,5.1,10.3,7.9,15.3l14.9-8.6C45.1,366.4,42.6,361.8,40.4,357.1z"/>
	<path d="M450.3,388.5l14.1,9.9c3.3-4.7,6.4-9.6,9.3-14.5l-14.9-8.6C456.1,379.8,453.3,384.2,450.3,388.5z"/>
	<path d="M20.2,215.7l-16.8-3c-0.9,5.6-1.7,11.3-2.2,17l17,1.5C18.7,226,19.4,220.8,20.2,215.7z"/>
	<path d="M24.5,195.4L7.9,191c-1.4,5.5-2.6,11.1-3.7,16.8l16.9,3C22,205.6,23.2,200.5,24.5,195.4z"/>
	<path d="M461.3,371l14.9,8.6c2.8-5,5.5-10.1,7.9-15.3l-15.6-7.3C466.3,361.8,463.9,366.4,461.3,371z"/>
	<path d="M17.7,236.3l-17-1.5C0.3,240.5,0.1,246.2,0,252l17.1,0C17.1,246.7,17.3,241.5,17.7,236.3z"/>
	<path d="M408.9,434.6l11.1,13.2c4.3-3.7,8.5-7.6,12.7-11.6L420.5,424C416.8,427.7,412.9,431.2,408.9,434.6z"/>
	<path d="M357.1,468.6l7.3,15.6c5.2-2.5,10.3-5.1,15.2-7.9l-8.6-14.9C366.4,463.9,361.8,466.3,357.1,468.6z"/>
	<path d="M190.6,25.8l-4.4-16.6c-5.5,1.5-11,3.3-16.4,5.2l5.9,16.2C180.5,28.8,185.5,27.2,190.6,25.8z"/>
	<path d="M133.6,50.2L125,35.3c-4.9,2.9-9.7,6-14.5,9.3l9.9,14.1C124.7,55.7,129.1,52.8,133.6,50.2z"/>
	<path d="M116.3,61.5l-9.9-14.1c-4.6,3.3-9.2,6.8-13.6,10.5l11.1,13.2C107.9,67.7,112,64.6,116.3,61.5z"/>
	<path d="M491.9,257c-0.1,5.3-0.3,10.5-0.7,15.7l17,1.5c0.4-5.7,0.7-11.4,0.7-17.2H491.9z"/>
	<path d="M18.2,277.7l-17,1.5c0.5,5.7,1.3,11.4,2.2,17l16.8-3C19.4,288.1,18.7,282.9,18.2,277.7z"/>
	<path d="M151.9,40.4l-7.3-15.6c-5.2,2.5-10.3,5.1-15.2,7.9l8.6,14.9C142.5,45.1,147.1,42.6,151.9,40.4z"/>
	<path d="M298.2,487.9l3,16.9c5.7-1,11.3-2.3,16.8-3.7l-4.4-16.6C308.5,485.8,303.3,486.9,298.2,487.9z"/>
	<path d="M170.9,32.2L165,16.1c-5.4,2-10.7,4.2-15.9,6.6l7.3,15.6C161.2,36.1,166,34.1,170.9,32.2z"/>
	<path d="M210.8,21.1l-3-16.9c-5.7,1-11.3,2.3-16.8,3.7l4.4,16.6C200.5,23.2,205.6,22,210.8,21.1z"/>
	<path d="M277.7,490.8l1.5,17c5.7-0.5,11.4-1.3,17-2.2l-3-16.8C288.1,489.6,282.9,490.3,277.7,490.8z"/>
	<path d="M318.3,483.2l4.4,16.6c5.5-1.5,11-3.3,16.4-5.2l-5.9-16.2C328.4,480.2,323.4,481.8,318.3,483.2z"/>
	<path d="M488.7,293.2l16.8,3c0.9-5.6,1.7-11.3,2.2-17l-17-1.5C490.3,282.9,489.6,288.1,488.7,293.2z"/>
	<path d="M338,476.7l5.9,16.2c5.4-2,10.7-4.2,15.9-6.6l-7.3-15.6C347.8,472.9,342.9,474.9,338,476.7z"/>
	<path d="M100,74.3L89,61.1c-4.3,3.7-8.5,7.6-12.7,11.6l12.1,12.1C92.2,81.2,96,77.7,100,74.3z"/>
</g>
</svg>
