<?xml version="1.0" encoding="utf-8"?>
<!-- Generator: Adobe Illustrator 16.0.0, SVG Export Plug-In . SVG Version: 6.00 Build 0)  -->
<!DOCTYPE svg PUBLIC "-//W3C//DTD SVG 1.1//EN" "http://www.w3.org/Graphics/SVG/1.1/DTD/svg11.dtd">
<svg version="1.1" id="Layer_1" xmlns="http://www.w3.org/2000/svg" xmlns:xlink="http://www.w3.org/1999/xlink" x="0px" y="0px"
	 width="37.4px" height="37.1px" viewBox="0 0 37.4 37.1" enable-background="new 0 0 37.4 37.1" xml:space="preserve">
<path fill="none" stroke="#000000" stroke-width="2" stroke-miterlimit="10" d="M31,6.6c3,3.1,4.9,7.3,4.9,12c0,4.7-1.9,8.9-4.9,12"
	/>
<path fill="none" stroke="#000000" stroke-width="2" stroke-miterlimit="10" d="M6.4,30.6c-3-3.1-4.9-7.3-4.9-12c0-4.7,1.9-9,5-12.1
	"/>
<path fill="none" stroke="#000000" stroke-width="2" stroke-miterlimit="10" d="M28.5,32.4c-2.8,2-6.2,3.2-9.9,3.2
	c-3.7,0-7.1-1.2-9.9-3.2"/>
<path fill="none" stroke="#000000" stroke-width="2" stroke-miterlimit="10" d="M8.6,4.7c2.8-2,6.2-3.2,9.9-3.2
	c3.7,0,7.1,1.2,9.9,3.2"/>
</svg>
